<?xml version="1.0" encoding="utf-8"?>
<!-- Generator: Adobe Illustrator 17.1.0, SVG Export Plug-In . SVG Version: 6.00 Build 0)  -->
<!DOCTYPE svg PUBLIC "-//W3C//DTD SVG 1.1//EN" "http://www.w3.org/Graphics/SVG/1.1/DTD/svg11.dtd">
<svg version="1.1" id="Layer_1" xmlns="http://www.w3.org/2000/svg" xmlns:xlink="http://www.w3.org/1999/xlink" x="0px" y="0px"
	 viewBox="0 0 15.5 15" enable-background="new 0 0 15.5 15" xml:space="preserve">
<g>
	<rect x="0" y="0" fill="#FFFFFF" width="15.4" height="15"/>
	
		<radialGradient id="SVGID_1_" cx="-852.3547" cy="709.9774" r="9.9319" gradientTransform="matrix(1.8668 0 0 -1.8603 1593.3459 1322.8436)" gradientUnits="userSpaceOnUse">
		<stop  offset="0.1232" style="stop-color:#4E4E4E"/>
		<stop  offset="0.8325" style="stop-color:#424242"/>
	</radialGradient>
	<path fill="url(#SVGID_1_)" d="M14.9,11.1C14.9,11.1,14.8,11.1,14.9,11.1l-1.3,0V11c-0.1,0.1-0.3,0.1-0.4,0.1c0,0,0,0-0.1,0h-0.7v0
		h-1.7v0H9.5v-0.4c0,0,0-0.3,0-0.3c0,0,0,0-0.1,0c0,0.1,0,0.7,0,0.7H8.2v-0.7c-0.2,0.1-0.4,0.1-0.6,0.1c0,0-0.1,0-0.1,0
		c0,0.1,0,0.6,0,0.6H6.1c0,0-0.2-0.3-0.4-0.4c-0.1,0.1-0.4,0.4-0.4,0.4H3.1V8.5h2.3c0,0,0.3,0.3,0.4,0.4c0.1-0.2,0.4-0.4,0.4-0.4
		h0.2l0.4,0h1.1c0.1,0,0.2,0,0.4,0.1V8.5h1.5c0.1,0,0.3,0,0.5,0.1V8.5H12h0.4v0.1c0.2-0.1,0.4-0.1,0.4-0.1h1.3v0.1
		c0.2-0.1,0.4-0.1,0.4-0.1h0.9V0H0v6.6l0.5-1.2h1.1c0,0,0.1,0.3,0.1,0.3c0,0,0-0.3,0-0.3h1.3c0,0,0.2,0.4,0.3,0.7
		c0.1-0.2,0.3-0.7,0.3-0.7h0.9h0.1h0.4h1.3h0.1h0.4h1c0.1,0,0.3,0,0.5,0.1V5.3h0.8h0.4v0.2c0.2-0.1,0.4-0.2,0.6-0.2c0,0,0.6,0,0.7,0
		v0h1.1c0,0,0.1,0.3,0.1,0.3c0-0.1,0-0.3,0-0.3h1.2c0,0,0.2,0.3,0.2,0.3c0-0.1,0-0.3,0-0.3h1.2v2.6h-1.2c0,0-0.2-0.3-0.2-0.3
		c0,0,0,0.3,0,0.3h-1.5c0,0-0.1-0.3-0.2-0.4c-0.2,0-0.2,0-0.4,0c0,0.1-0.2,0.4-0.2,0.4h-1l0,0c-0.1,0-0.3-0.1-0.4-0.2v0.2H8.7v0H7.7
		V7.6c0,0,0-0.3,0-0.3c0,0,0,0-0.1,0c0,0.1,0,0.7,0,0.7H6.8H6.4H5.1H5H3.9v0c0,0,0,0,0,0H3c0,0,0,0,0,0c0,0,0,0,0,0H1.5
		c0,0-0.1-0.3-0.2-0.4c-0.2,0-0.2,0-0.4,0c0,0.1-0.2,0.4-0.2,0.4H0V15h15.4v-4.1C15.2,11,15,11.1,14.9,11.1z"/>
	<g>
		<g>
			<g>
				<path id="SVGID_4_" fill="#424242" d="M8,7.6V7.2c0,0,0-0.3-0.3-0.3H7.2v0.7H6.8V5.7h1.2c0,0,0.6-0.1,0.6,0.5
					c0,0.3-0.3,0.4-0.3,0.4s0.2,0.1,0.2,0.4v0.5L8,7.6 M7.2,6.5h0.5C7.9,6.5,8,6.4,8,6.3c0-0.1-0.1-0.2-0.3-0.2H7.2V6.5L7.2,6.5"/>
			</g>
		</g>
		<g>
			<g>
				<path id="SVGID_6_" fill="#424242" d="M13.7,7.6l-0.8-1.3v1.3h-0.4h-0.1H12l-0.2-0.4h-0.9l-0.2,0.4h-0.4h-0.1H10
					c0,0-0.6-0.1-0.6-0.9c0-1,0.7-1,0.8-1l0.6,0v0.4l-0.5,0c0,0-0.3,0-0.4,0.4c0,0,0,0.1,0,0.1c0,0.6,0.6,0.4,0.6,0.4L11,5.7h0.7
					l0.7,1.7V5.7h0.7l0.7,1.2V5.7h0.5v1.9H13.7 M11.1,6.7h0.5l-0.2-0.6L11.1,6.7L11.1,6.7"/>
			</g>
		</g>
		<g>
			<g>
				<path id="SVGID_8_" fill="#424242" d="M4.3,7.6V6.3L3.7,7.6H3.3L2.7,6.3v1.3H2.3H2.2H1.7L1.6,7.2H0.7L0.5,7.6H0l0.8-1.9h0.7
					l0.7,1.7V5.7h0.8l0.5,1.2L4,5.7h0.8v1.9H4.3 M0.9,6.7h0.5L1.1,6.1L0.9,6.7L0.9,6.7"/>
			</g>
		</g>
		<g>
			<g>
				<polyline id="SVGID_10_" fill="#424242" points="5,7.6 5,5.7 6.5,5.7 6.5,6.1 5.5,6.1 5.5,6.4 6.5,6.4 6.5,6.8 5.5,6.8 5.5,7.2 
					6.5,7.2 6.5,7.6 5,7.6 				"/>
			</g>
		</g>
		<g>
			<g>
				<polyline id="SVGID_12_" fill="#424242" points="8.7,7.6 8.7,5.7 9.2,5.7 9.2,7.6 8.7,7.6 				"/>
			</g>
		</g>
	</g>
	<g>
		<g>
			<g>
				<path id="SVGID_14_" fill="#424242" d="M9.9,10.7v-0.4c0,0,0-0.3-0.3-0.3H9.1v0.7H8.6V8.9h1.2c0,0,0.6-0.1,0.6,0.5
					c0,0.3-0.3,0.4-0.3,0.4s0.2,0.1,0.2,0.4v0.5L9.9,10.7 M9.1,9.7h0.5c0.1,0,0.3-0.1,0.3-0.2c0-0.1-0.1-0.2-0.3-0.2H9.1V9.7
					L9.1,9.7"/>
			</g>
		</g>
		<g>
			<g>
				<path id="SVGID_16_" fill="#424242" d="M6.7,10.7H6.3l-0.5-0.6l-0.5,0.6H4.9H3.5V8.9h1.5h0.3l0.5,0.6l0.6-0.6h0.4v0h1.2
					c0,0,0.6-0.1,0.6,0.6c0,0.6-0.2,0.7-0.8,0.7H7.1v0.6L6.7,10.7 M6.1,9.8l0.6,0.7V9.2L6.1,9.8L6.1,9.8 M3.9,10.3h1l0.5-0.5
					L4.9,9.3h-1v0.3h1V10h-1V10.3L3.9,10.3 M7.1,9.7h0.5c0.1,0,0.3-0.1,0.3-0.2S7.8,9.3,7.6,9.3H7.1V9.7L7.1,9.7"/>
			</g>
		</g>
		<g>
			<g>
				<path id="SVGID_18_" fill="#424242" d="M13.1,10.7h-0.9v-0.4H13c0,0,0.3,0,0.3-0.1c0-0.2-0.4-0.2-0.4-0.2s-0.7,0.1-0.7-0.6
					c0-0.6,0.6-0.6,0.6-0.6h0.9v0.4H13c0,0-0.3-0.1-0.3,0.1c0,0.2,0.3,0.1,0.3,0.1s0.7-0.1,0.7,0.5C13.8,10.7,13.3,10.7,13.1,10.7
					C13.1,10.7,13.1,10.7,13.1,10.7"/>
			</g>
		</g>
		<g>
			<g>
				<polyline id="SVGID_20_" fill="#424242" points="10.6,10.7 10.6,8.9 12.1,8.9 12.1,9.3 11,9.3 11,9.6 12,9.6 12,10 11,10 
					11,10.3 12.1,10.3 12.1,10.7 10.6,10.7 				"/>
			</g>
		</g>
		<g>
			<g>
				<path id="SVGID_22_" fill="#424242" d="M14.8,10.7H14v-0.4h0.7c0,0,0.3,0,0.3-0.1c0-0.2-0.4-0.2-0.4-0.2s-0.7,0.1-0.7-0.6
					c0-0.6,0.6-0.6,0.6-0.6h0.9v0.4h-0.7c0,0-0.3-0.1-0.3,0.1c0,0.2,0.3,0.1,0.3,0.1s0.7-0.1,0.7,0.5C15.5,10.7,15,10.7,14.8,10.7
					C14.8,10.7,14.8,10.7,14.8,10.7"/>
			</g>
		</g>
	</g>
</g>
</svg>
