<?xml version="1.0" encoding="utf-8"?>
<!-- Generator: Adobe Illustrator 17.1.0, SVG Export Plug-In . SVG Version: 6.00 Build 0)  -->
<!DOCTYPE svg PUBLIC "-//W3C//DTD SVG 1.1//EN" "http://www.w3.org/Graphics/SVG/1.1/DTD/svg11.dtd">
<svg version="1.1" id="Layer_1" xmlns="http://www.w3.org/2000/svg" xmlns:xlink="http://www.w3.org/1999/xlink" x="0px" y="0px"
	 viewBox="0 0 71 15" enable-background="new 0 0 71 15" xml:space="preserve">
<g>
	<path fill="#424242" d="M11.1,1.7l-1,2.7c0,0-2-1.3-4.4-0.8C3.4,4.3,3.3,7,3.2,7.6c-0.1,0.6,0.2,4.2,4.1,3.9c1.7-0.1,2.9-1,2.9-1
		c0.1,0.4,0.7,2.8,0.7,2.8S8.2,15,3.9,13.8C-0.4,12,0,7.6,0,7.6s-0.3-6.8,6.8-6.8C9.1,0.8,11.1,1.7,11.1,1.7z"/>
	<path fill="#424242" d="M20.4,1.1h-4.1L11.8,14h3.3l0.8-2.7l4.8,0l0.9,2.7h3.2L20.4,1.1z M16.7,8.6l1.7-4.9l1.6,4.9H16.7z"/>
	<path fill="#424242" d="M35.4,1.9l-0.6,2.7c0,0-2.2-1.2-4.1-1.1c-1.8,0.1-1.7,1-1.7,1.1c0,0.2-0.2,0.9,2.4,1.5
		c1.1,0.3,3.2,1,3.8,2.2s0.7,2.8-0.4,4.2c-1,1.4-3,1.7-4.3,1.7c-2.8,0.1-5-1.2-5-1.2l0.6-2.7c0,0,1.7,1.1,4.3,1.2
		c2.3,0.1,2-1.3,2-1.3s0-0.4-0.3-0.6c-0.4-0.2-0.4-0.3-1.3-0.6c-1-0.3-2.2-0.7-2.8-1c-0.6-0.3-1.9-1-2.1-2.4c-0.3-1.4,0.1-3,1.8-4.2
		C29.4,0.5,32.7,0.6,35.4,1.9z"/>
	<polygon fill="#424242" points="37.8,1.1 37.8,14 41,14 41,8.9 46.1,8.9 46.1,14 49.4,14 49.4,1.1 46.2,1.1 46.2,6.1 41,6.1 
		41,1.1 	"/>
	<path fill="#424242" d="M54.4,0.8c0,0-1.8-0.2-2.2,1.8c-0.4,2,0.4,11.1,0.4,11.1S53,15,54.4,15c0.5,0,7.3-1.3,7.3-1.3
		s-2.1,0-3.2-2.9C57.8,9.1,54.4,0.8,54.4,0.8z"/>
	<path fill="#424242" d="M58,0.6c0,0,3.1,8.9,3.6,9.4c0.3,0.3,0.8,0.9,1.7,0.8c0.9,0,3.7-1.5,3.1-3.7c-0.6-2.2-2.1-6.8-2.1-6.8
		L58,0.6z"/>
	<path fill="#424242" d="M67.5,0.1c0,0,2,6.2,1.7,7.8c-0.3,1.6-0.8,3.4-4.9,5.3c3.2-0.6,4.9-0.9,4.9-0.9s1.2-0.4,1.3-2.3
		C70.7,8.2,71,1.4,71,1.4S70.8,0,69.7,0C68.8,0,67.5,0.1,67.5,0.1z"/>
</g>
</svg>
