<?xml version="1.0" encoding="utf-8"?>
<!-- Generator: Adobe Illustrator 17.1.0, SVG Export Plug-In . SVG Version: 6.00 Build 0)  -->
<!DOCTYPE svg PUBLIC "-//W3C//DTD SVG 1.1//EN" "http://www.w3.org/Graphics/SVG/1.1/DTD/svg11.dtd">
<svg version="1.1" id="Layer_1" xmlns="http://www.w3.org/2000/svg" xmlns:xlink="http://www.w3.org/1999/xlink" x="0px" y="0px"
	 viewBox="0 0 24 15" enable-background="new 0 0 24 15" xml:space="preserve">
<g>
	<path fill="#5B5B5B" d="M12,13.1c1.4-1.4,2.4-3.4,2.4-5.6S13.4,3.3,12,1.9C10.7,0.7,9,0,7.2,0C3.2,0,0,3.4,0,7.5S3.2,15,7.2,15
		C9,15,10.7,14.3,12,13.1L12,13.1z"/>
	<path fill="#424242" d="M16.8,0C15,0,13.3,0.7,12,1.9c-0.3,0.2-0.5,0.5-0.7,0.8h1.4c0.2,0.3,0.4,0.5,0.5,0.8h-2.5
		c-0.2,0.3-0.3,0.5-0.4,0.8h3.4c0.1,0.3,0.2,0.5,0.3,0.8h-4C9.9,5.4,9.9,5.6,9.8,5.9h4.4c0.1,0.5,0.2,1,0.2,1.6
		c0,0.8-0.1,1.6-0.4,2.4h-4c0.1,0.3,0.2,0.5,0.3,0.8h3.4c-0.1,0.3-0.3,0.5-0.4,0.8h-2.5c0.2,0.3,0.4,0.5,0.5,0.8h1.4
		c-0.2,0.3-0.5,0.5-0.7,0.8c1.3,1.2,3,1.9,4.8,1.9c4,0,7.2-3.4,7.2-7.5C24,3.4,20.8,0,16.8,0L16.8,0z"/>
	<path fill="#FFFFFF" d="M21.5,9.1c0-0.1,0.1-0.2,0.2-0.2C21.9,8.9,22,9,22,9.1c0,0.1-0.1,0.2-0.2,0.2C21.6,9.4,21.5,9.3,21.5,9.1
		L21.5,9.1z M21.8,9.3c0.1,0,0.2-0.1,0.2-0.2c0-0.1-0.1-0.2-0.2-0.2c-0.1,0-0.2,0.1-0.2,0.2C21.6,9.2,21.7,9.3,21.8,9.3L21.8,9.3z
		 M21.7,9.2L21.7,9.2l0-0.2h0.1c0,0,0,0,0.1,0c0,0,0,0,0,0.1C21.8,9.1,21.8,9.1,21.7,9.2l0.1,0L21.7,9.2L21.7,9.2L21.7,9.2L21.7,9.2
		V9.1h0c0,0,0,0,0,0c0,0,0,0,0,0c0,0,0,0,0,0c0,0,0,0,0,0h0v0.1V9.2L21.7,9.2z"/>
	<polygon fill="#FFFFFF" points="6.3,9.4 5.4,9.4 5.9,6.4 4.7,9.4 3.9,9.4 3.7,6.5 3.2,9.4 2.4,9.4 3.1,5.6 4.5,5.6 4.6,7.9 
		5.5,5.6 7,5.6 	"/>
	<path fill="#FFFFFF" d="M16.3,9.3c-0.2,0.1-0.4,0.1-0.6,0.1c-0.5,0-0.7-0.2-0.7-0.7c0-0.1,0-0.2,0-0.3L15,8.2l0-0.2l0.4-2.4h0.9
		l-0.1,0.7h0.5L16.5,7h-0.5l-0.2,1.3c0,0.1,0,0.1,0,0.1c0,0.2,0.1,0.2,0.3,0.2c0.1,0,0.2,0,0.2,0L16.3,9.3L16.3,9.3z"/>
	<path fill="#FFFFFF" d="M18.9,6.3c-0.1,0-0.1,0-0.1,0c0,0-0.1,0-0.1,0c0,0-0.1,0-0.1,0c-0.3,0-0.5,0.1-0.8,0.5l0.1-0.5h-0.8
		l-0.5,3.1h0.9c0.3-1.9,0.5-2.2,0.9-2.2c0,0,0.1,0,0.1,0l0.1,0L18.9,6.3L18.9,6.3z"/>
	<path fill="#FFFFFF" d="M12.7,7.3c0,0.4,0.2,0.7,0.7,0.9c0.4,0.2,0.4,0.2,0.4,0.3c0,0.2-0.2,0.3-0.5,0.3c-0.3,0-0.5,0-0.8-0.1
		l-0.1,0.7l0,0l0.2,0c0.1,0,0.1,0,0.2,0c0.2,0,0.4,0,0.5,0c1,0,1.4-0.3,1.4-1c0-0.4-0.2-0.7-0.6-0.9c-0.4-0.2-0.4-0.2-0.4-0.3
		c0-0.2,0.1-0.3,0.4-0.3c0.2,0,0.4,0,0.6,0l0.1-0.7c-0.2,0-0.6-0.1-0.8-0.1C13.1,6.2,12.7,6.7,12.7,7.3L12.7,7.3z"/>
	<path fill="#FFFFFF" d="M9.2,9.4H8.4l0-0.3C8.2,9.3,7.9,9.4,7.5,9.4C7,9.4,6.7,9.1,6.7,8.6c0-0.8,0.6-1.2,1.6-1.2
		c0.1,0,0.2,0,0.4,0c0-0.1,0-0.1,0-0.2c0-0.2-0.2-0.3-0.6-0.3C7.8,6.9,7.6,7,7.4,7L7.2,7l-0.1,0l0.1-0.7C7.7,6.2,8,6.2,8.3,6.2
		c0.8,0,1.2,0.3,1.2,0.9c0,0.2,0,0.3-0.1,0.6L9.3,8.8l0,0.2l0,0.2L9.2,9.4L9.2,9.4L9.2,9.4z M8.5,8C8.4,8,8.4,8,8.3,8
		C7.8,8,7.6,8.1,7.6,8.4c0,0.2,0.1,0.3,0.3,0.3C8.3,8.8,8.5,8.4,8.5,8L8.5,8z"/>
	<path fill="#FFFFFF" d="M12.1,9.3c-0.3,0.1-0.6,0.1-0.9,0.1c-1,0-1.5-0.5-1.5-1.4c0-1.1,0.7-1.8,1.6-1.8c0.7,0,1.2,0.4,1.2,1.1
		c0,0.2,0,0.5-0.1,0.8h-1.8c0,0,0,0.1,0,0.1c0,0.4,0.3,0.5,0.8,0.5c0.3,0,0.6-0.1,0.9-0.2L12.1,9.3L12.1,9.3z M11.6,7.5
		c0-0.1,0-0.1,0-0.2c0-0.3-0.2-0.4-0.4-0.4c-0.3,0-0.5,0.2-0.6,0.6L11.6,7.5L11.6,7.5z"/>
	<path fill="#FFFFFF" d="M21.7,8c-0.1,1-0.8,1.5-1.7,1.5c-1,0-1.4-0.6-1.4-1.4c0-1.1,0.7-1.8,1.8-1.8c0.9,0,1.4,0.6,1.4,1.4
		C21.7,7.8,21.7,7.8,21.7,8L21.7,8z M20.7,7.6c0-0.3-0.1-0.6-0.5-0.6c-0.5,0-0.7,0.6-0.7,1.1c0,0.4,0.2,0.7,0.5,0.7
		c0.2,0,0.6-0.3,0.7-0.8C20.7,7.8,20.7,7.7,20.7,7.6L20.7,7.6z"/>
</g>
</svg>
