<?xml version="1.0" encoding="utf-8"?>
<!-- Generator: Adobe Illustrator 17.1.0, SVG Export Plug-In . SVG Version: 6.00 Build 0)  -->
<!DOCTYPE svg PUBLIC "-//W3C//DTD SVG 1.1//EN" "http://www.w3.org/Graphics/SVG/1.1/DTD/svg11.dtd">
<svg version="1.1" id="Layer_1" xmlns="http://www.w3.org/2000/svg" xmlns:xlink="http://www.w3.org/1999/xlink" x="0px" y="0px"
	 viewBox="0 0 63.5 15" enable-background="new 0 0 63.5 15" xml:space="preserve">
<g>
	<polygon fill="#424242" points="2.2,2.5 6.7,2.8 9.7,2.8 12.4,2.6 12.3,4.8 11.9,6.8 11.1,8.9 9.5,11.2 8,12.3 7.2,12.7 6,12.1 
		4.6,10.9 3.7,9.7 2.8,7.9 2.2,5.8 2.1,3.8 	"/>
	<g>
		<g>
			<g>
				<path fill="#424242" d="M34,10.6c-0.4,0.2-0.9,0.3-1.3,0.3c-1,0-1.8-0.7-1.8-1.7c0-1.1,0.7-1.8,1.7-1.8c0.5,0,1,0.1,1.4,0.3V6
					c-0.5-0.2-1.1-0.3-1.7-0.3c-2.2,0-3.8,1.3-3.8,3.5c0,2.2,1.6,3.5,3.8,3.5c0.6,0,1.2-0.1,1.8-0.3L34,10.6L34,10.6z"/>
				<path fill="#424242" d="M50.1,9.8c0.1,0.8,0.6,1.2,1.8,1.2c0.6,0,1.3-0.1,2-0.4v1.6c-0.7,0.3-1.6,0.4-2.4,0.4
					c-2.2,0-3.7-1.3-3.7-3.5s1.3-3.5,3.3-3.5c2.4,0,3.3,1.7,3.3,3.7v0.4C54.4,9.8,50.1,9.8,50.1,9.8z M52.2,8.5
					c0-0.8-0.3-1.3-1.1-1.3c-0.7,0-1,0.6-1,1.3H52.2z"/>
				<path fill="#424242" d="M57.4,9.8c0.1,0.8,0.6,1.2,1.8,1.2c0.6,0,1.3-0.1,2-0.4v1.6c-0.7,0.3-1.6,0.4-2.4,0.4
					c-2.2,0-3.7-1.3-3.7-3.5s1.3-3.5,3.4-3.5c2.4,0,3.3,1.7,3.3,3.7v0.4C61.6,9.8,57.4,9.8,57.4,9.8z M59.4,8.5
					c0-0.8-0.3-1.3-1.1-1.3c-0.7,0-1,0.6-1,1.3H59.4z"/>
				<g>
					<polygon fill="#424242" points="28.1,12.5 26.8,2.8 23.8,2.8 22.4,9.3 21.1,2.8 18.1,2.8 16.7,12.5 19,12.5 19.8,6.4 
						21.1,12.5 23.6,12.5 25.1,6.4 25.8,12.5 					"/>
				</g>
				<path fill="#424242" d="M46.3,5.4c0-0.7,0.2-1.2,0.8-1.2c0.3,0,0.6,0,0.7,0V2.5c-0.3-0.1-0.6-0.1-1.1-0.1c-1.9,0-2.9,0.9-2.9,3
					v0.4h-1.1v1.7H44v4.9h2.3V7.6h1.4V5.9h-1.4V5.4z"/>
				<path fill="#424242" d="M43.4,12.5h-2.6l-0.5-2h-2.8l-0.5,2h-2.5l2.8-9.6h3.2L43.4,12.5z M37.9,8.6h1.9l-0.9-3.9L37.9,8.6z"/>
			</g>
			<g>
				<path fill="#424242" d="M62.5,5.7c0.5,0,0.9,0.4,0.9,0.9c0,0.5-0.4,0.9-0.9,0.9c-0.5,0-0.9-0.4-0.9-0.9
					C61.6,6.1,62,5.7,62.5,5.7z M62.5,7.5c0.5,0,0.8-0.3,0.8-0.8S63,5.8,62.5,5.8c-0.5,0-0.8,0.3-0.8,0.8
					C61.7,7.1,62.1,7.5,62.5,7.5z M62.2,6.1h0.4c0.3,0,0.4,0.1,0.4,0.3c0,0.2-0.1,0.3-0.3,0.3L63,7.2h-0.2l-0.3-0.5h-0.2v0.5h-0.2
					L62.2,6.1L62.2,6.1z M62.4,6.6h0.2c0.1,0,0.2,0,0.2-0.2c0-0.1-0.1-0.2-0.2-0.2h-0.2V6.6z"/>
			</g>
		</g>
		<g>
			<g>
				<g>
					<g>
						<path fill="#6E7B82" d="M7.2,15c6.5-3,7.2-9.3,7.2-12.2c0-1.1-0.1-1.7-0.1-1.8l-0.6,0.5c0,0.2,0.1,0.7,0.1,1.3
							c0,2.8-0.7,8.8-6.6,11.5V15z"/>
						
							<linearGradient id="SVGID_1_" gradientUnits="userSpaceOnUse" x1="-4101.2759" y1="427.5734" x2="-4108.8564" y2="428.4184" gradientTransform="matrix(1.8603 0 0 -1.8603 7645.292 797.3885)">
							<stop  offset="0.25" style="stop-color:#A1ADB4"/>
							<stop  offset="0.65" style="stop-color:#B9C0C5"/>
							<stop  offset="1" style="stop-color:#D1D5D9"/>
						</linearGradient>
						<path fill="url(#SVGID_1_)" d="M7.2,0.7c-3,0-6,0.7-6.5,0.8L0.1,1c0.3-0.1,3.7-1,7.1-1c3.4,0,6.8,0.9,7.1,1l-0.6,0.5
							C13.2,1.3,10.3,0.7,7.2,0.7z"/>
						
							<linearGradient id="SVGID_2_" gradientUnits="userSpaceOnUse" x1="266.4028" y1="424.3572" x2="270.2969" y2="424.3572" gradientTransform="matrix(1.8603 0 0 -1.8603 -495.5729 797.3885)">
							<stop  offset="0.1648" style="stop-color:#A1ADB4"/>
							<stop  offset="0.3887" style="stop-color:#A8B2B9"/>
							<stop  offset="0.7545" style="stop-color:#BEC5CA"/>
							<stop  offset="1" style="stop-color:#D1D5D9"/>
						</linearGradient>
						<path fill="url(#SVGID_2_)" d="M7.2,14.3C1.4,11.5,0.7,5.6,0.7,2.8c0-0.6,0-1,0.1-1.3L0.1,1C0.1,1.1,0,1.7,0,2.8
							C0,5.7,0.7,12,7.2,15V14.3z"/>
					</g>
				</g>
			</g>
			<g>
				<g>
					<g>
						<path fill="#424242" d="M7.2,12.5c-0.7-0.3-4.9-2.3-4.9-8.7c0-0.3,0-0.6,0-1L1.9,2.3c0,0.4,0,0.7,0,1.1c0,7,4.5,9.3,5.4,9.7
							V12.5L7.2,12.5z"/>
						<path fill="#424242" d="M7.2,3C4.5,3,2.7,2.8,2.4,2.8l0,0L2,2.4L1.9,2.2c0.1,0,2.3,0.3,5.4,0.3c3.1,0,5.2-0.3,5.4-0.3
							l-0.5,0.5l0,0C11.8,2.8,10,3,7.2,3z"/>
						<path fill="#424242" d="M7.2,12.5c0.7-0.3,4.9-2.3,4.9-8.7c0-0.3,0-0.6,0-1l0.5-0.5c0,0.4,0,0.7,0,1.1c0,7-4.5,9.3-5.4,9.7
							V12.5L7.2,12.5z"/>
					</g>
					<g>
						<polygon fill="#424242" points="6.3,3.4 8.1,9.1 6.5,9.1 5.8,5.9 5.3,9.1 3.9,9.1 4.8,3.4 						"/>
						<polygon fill="#424242" points="9.7,3.4 8.3,3.4 7.5,5.9 8.2,8.3 8.7,5.9 9.2,9.1 10.6,9.1 						"/>
					</g>
				</g>
			</g>
		</g>
	</g>
	<g>
		<polygon fill="#FFFFFF" points="6.3,3.4 8.1,9.1 6.5,9.1 5.8,5.9 5.3,9.1 3.9,9.1 4.8,3.4 		"/>
		<polygon fill="#FFFFFF" points="9.7,3.4 8.3,3.4 7.5,5.9 8.2,8.3 8.7,5.9 9.2,9.1 10.6,9.1 		"/>
	</g>
</g>
</svg>
