<?xml version="1.0" encoding="utf-8"?>
<!-- Generator: Adobe Illustrator 17.1.0, SVG Export Plug-In . SVG Version: 6.00 Build 0)  -->
<!DOCTYPE svg PUBLIC "-//W3C//DTD SVG 1.1//EN" "http://www.w3.org/Graphics/SVG/1.1/DTD/svg11.dtd">
<svg version="1.1" id="Layer_1" xmlns="http://www.w3.org/2000/svg" xmlns:xlink="http://www.w3.org/1999/xlink" x="0px" y="0px"
	 viewBox="0 0 23 15" enable-background="new 0 0 23 15" xml:space="preserve">
<g>
	<g>
		<polyline fill="#424242" points="23,9.5 5.2,15 0,1 18.7,0 23,9.5 		"/>
	</g>
	<path fill="#FFFFFF" d="M9.5,6.7c0,0.4-0.1,0.7-0.2,0.9C9.1,7.9,8.9,8.1,8.6,8.3C8.3,8.5,8,8.6,7.6,8.7C7.2,8.8,6.7,8.8,6.2,8.8
		H5.9v1.8H3.6v-6h2.7c1,0,1.8,0.2,2.4,0.5C9.2,5.5,9.5,6,9.5,6.7 M7.3,6.7c0-0.5-0.4-0.8-1.2-0.8H5.9v1.6h0.3c0.4,0,0.7-0.1,0.9-0.2
		C7.2,7.2,7.3,7,7.3,6.7z"/>
	<path fill="#FFFFFF" d="M15.3,10.6c-0.4,0.1-0.8,0.1-1.2,0.1c-0.6,0-1.2-0.1-1.7-0.2c-0.5-0.1-0.9-0.3-1.3-0.6
		c-0.3-0.3-0.6-0.6-0.8-1C10.1,8.5,10,8.1,10,7.6c0-0.5,0.1-0.9,0.3-1.3c0.2-0.4,0.5-0.7,0.8-1c0.4-0.3,0.8-0.5,1.3-0.6
		c0.5-0.1,1-0.2,1.6-0.2c0.5,0,0.9,0,1.2,0.1c0.4,0.1,0.4,0.1,0.7,0.2l0,1.6c-0.2-0.1-0.5-0.2-0.8-0.3C14.8,6,14.5,6,14.2,6
		c-0.5,0-0.9,0.1-1.3,0.4c-0.3,0.3-0.5,0.7-0.5,1.2c0,0.3,0.1,0.5,0.2,0.7c0.1,0.2,0.2,0.4,0.4,0.5c0.2,0.1,0.4,0.2,0.6,0.3
		c0.2,0.1,0.5,0.1,0.8,0.1c0.3,0,0.5,0,0.8-0.1C15.4,9.1,15.7,9,16,8.9l0,1.5C15.6,10.5,15.6,10.5,15.3,10.6"/>
	<rect x="17" y="4.6" fill="#FFFFFF" width="2.3" height="6"/>
	<path fill="#FFFFFF" d="M19.5,2.7c0,0.4-0.1,0.7-0.4,1c-0.3,0.2-0.6,0.3-1,0.3c-0.4,0-0.7-0.1-1-0.3c-0.3-0.2-0.4-0.5-0.4-1
		c0-0.4,0.1-0.7,0.4-1c0.3-0.2,0.6-0.3,1-0.3s0.7,0.1,1,0.3C19.4,2,19.5,2.3,19.5,2.7"/>
</g>
</svg>
