<?xml version="1.0" encoding="utf-8"?>
<!-- Generator: Adobe Illustrator 17.1.0, SVG Export Plug-In . SVG Version: 6.00 Build 0)  -->
<!DOCTYPE svg PUBLIC "-//W3C//DTD SVG 1.1//EN" "http://www.w3.org/Graphics/SVG/1.1/DTD/svg11.dtd">
<svg version="1.1" id="Layer_1" xmlns="http://www.w3.org/2000/svg" xmlns:xlink="http://www.w3.org/1999/xlink" x="0px" y="0px"
	 viewBox="0 0 40 15" enable-background="new 0 0 40 15" xml:space="preserve">
<g>
	<g>
		<path fill="#424242" d="M12.6,10.5C13.7,8.8,14.2,7,13.7,5c-0.8-3.5-4.1-5.6-7.8-4.9C2.2,0.8-0.4,4.3,0.1,8
			c0.5,3.5,4.2,6.1,7.8,5.4c1.1-0.2,2.3-0.5,3.4-0.2c1.3,0.3,2.4,0.9,3.3,1.8c-0.9-1.4-2.2-2.1-3.8-2.3c-1.2-0.2-2.4-0.5-3.2-1.6
			c0,0.4,0.1,0.6,0.1,0.8c-0.2,0-0.4,0-0.5,0C3.6,11.5,1.2,8.2,2,4.7c0.5-2.2,2.6-3.8,4.7-3.4c2.7,0.5,4.4,2.2,5.2,4.8
			c0.3,1,0.3,2-0.1,3c-0.3-0.1-0.5-0.1-0.5-0.1C11.7,9.4,12.1,9.9,12.6,10.5z M10.6,11.8c0.1-0.2,0.3-0.3,0.3-0.4
			c-0.1-0.1-0.2-0.2-0.3-0.3c0,0-0.2,0.1-0.2,0.2C10.4,11.4,10.5,11.6,10.6,11.8z"/>
		<path fill="#424242" d="M12.6,10.5c-0.5-0.6-0.9-1.1-1.3-1.5c0,0,0.2,0.1,0.5,0.1c0.3-1,0.3-2,0.1-3c-0.8-2.6-2.5-4.3-5.2-4.8
			C4.6,0.9,2.4,2.5,2,4.7c-0.7,3.5,1.6,6.8,5.2,7.2c0.2,0,0.3,0,0.5,0c0-0.3,0-0.5-0.1-0.8c0.9,1.1,2,1.5,3.2,1.6
			c1.6,0.2,2.9,0.9,3.8,2.3c-0.9-1-2-1.6-3.3-1.8c-1.2-0.2-2.3,0-3.4,0.2C4.3,14.1,0.5,11.5,0.1,8c-0.5-3.6,2.2-7.2,5.9-7.9
			c3.7-0.7,7,1.4,7.8,4.9C14.2,7,13.7,8.8,12.6,10.5z"/>
		<path fill="#424242" d="M10.6,11.8c-0.1-0.2-0.2-0.4-0.3-0.5c0,0,0.2-0.2,0.2-0.2c0.1,0.1,0.3,0.2,0.3,0.3
			C10.9,11.5,10.7,11.6,10.6,11.8z"/>
	</g>
	<g>
		<path fill="#424242" d="M20.4,2.8c0,0.6-0.1,1-0.3,1.4c-0.2,0.4-0.5,0.7-0.9,0.8c0.1,0.1,0.2,0.3,0.3,0.4c0.2,0.2,0.3,0.3,0.5,0.5
			c0.2,0.2,0.4,0.3,0.6,0.4c0.2,0.1,0.4,0.2,0.6,0.2c0.1,0,0.1,0,0.2,0c0.1,0,0.1,0,0.1,0l0,0.4c-0.1,0-0.3,0.1-0.5,0.1
			C20.8,7,20.6,7,20.4,7C20.2,7,20,7,19.8,6.8c-0.2-0.1-0.4-0.2-0.6-0.4c-0.2-0.2-0.4-0.4-0.5-0.6c-0.2-0.2-0.3-0.4-0.5-0.7
			c0,0-0.1,0-0.1,0c0,0-0.1,0-0.1,0c-0.4,0-0.7-0.1-1-0.2c-0.3-0.1-0.5-0.3-0.7-0.5c-0.2-0.2-0.3-0.5-0.4-0.8
			c-0.1-0.3-0.1-0.6-0.1-1s0-0.7,0.1-1c0.1-0.3,0.2-0.5,0.4-0.8c0.2-0.2,0.4-0.4,0.7-0.5c0.3-0.1,0.6-0.2,1-0.2s0.7,0.1,1,0.2
			c0.3,0.1,0.5,0.3,0.7,0.5c0.2,0.2,0.3,0.5,0.4,0.8C20.3,2.1,20.4,2.4,20.4,2.8z M19.4,2.8c0-0.3,0-0.5-0.1-0.8
			c0-0.2-0.1-0.4-0.2-0.6s-0.2-0.3-0.4-0.4c-0.2-0.1-0.4-0.1-0.6-0.1c-0.2,0-0.4,0-0.6,0.1c-0.2,0-0.3,0.1-0.4,0.2
			c-0.1,0.1-0.2,0.3-0.2,0.5c0,0.3-0.1,0.6-0.1,1.1c0,0.3,0,0.5,0.1,0.8C17,3.8,17,4,17.1,4.1c0.1,0.2,0.2,0.3,0.4,0.4
			c0.2,0.1,0.4,0.1,0.6,0.1c0.2,0,0.4,0,0.6-0.1c0.2,0,0.3-0.1,0.4-0.2c0.1,0,0.1-0.1,0.1-0.2c0-0.1,0.1-0.2,0.1-0.4
			c0-0.1,0-0.3,0.1-0.5C19.4,3.1,19.4,3,19.4,2.8z"/>
		<path fill="#424242" d="M22.2,5.1h-0.9V0.4h0.9V5.1z"/>
		<path fill="#424242" d="M26,2.7c0-0.1,0-0.1-0.1-0.2c0-0.1,0-0.1,0-0.1c0,0,0-0.1,0-0.1c0,0,0,0.1,0,0.1c0,0,0,0.1,0,0.1
			c0,0.1,0,0.1-0.1,0.2L25,5.1h-0.9l-1.3-4.7h1l0.8,2.8c0,0.1,0.1,0.2,0.1,0.4s0.1,0.3,0.1,0.4c0,0.1,0.1,0.3,0.1,0.4
			c0-0.1,0.1-0.3,0.1-0.4c0-0.1,0.1-0.2,0.1-0.4c0-0.1,0.1-0.2,0.1-0.3L25.8,1h0.5l0.7,2.2c0,0.1,0.1,0.2,0.1,0.3
			c0,0.1,0.1,0.3,0.1,0.4c0,0.1,0.1,0.3,0.1,0.4c0-0.1,0.1-0.3,0.1-0.4c0-0.1,0.1-0.2,0.1-0.4c0-0.1,0.1-0.2,0.1-0.3l0.7-2.8H29
			l-1.3,4.7h-0.9L26,2.7z"/>
		<path fill="#424242" d="M30.5,5.1h-0.9V0.4h0.9V5.1z"/>
		<path fill="#424242" d="M18.8,10.2c0-0.1,0-0.1-0.1-0.2c0-0.1,0-0.1,0-0.1c0,0,0-0.1,0-0.1c0,0,0,0.1,0,0.1c0,0,0,0.1,0,0.1
			c0,0.1,0,0.1-0.1,0.2l-0.8,2.4h-0.9l-1.3-4.7h1l0.8,2.8c0,0.1,0.1,0.2,0.1,0.4c0,0.1,0.1,0.3,0.1,0.4c0,0.1,0.1,0.3,0.1,0.4
			c0-0.1,0.1-0.3,0.1-0.4c0-0.1,0.1-0.2,0.1-0.4c0-0.1,0.1-0.2,0.1-0.3l0.7-2.2h0.5l0.7,2.2c0,0.1,0.1,0.2,0.1,0.3
			c0,0.1,0.1,0.3,0.1,0.4c0,0.1,0.1,0.3,0.1,0.4c0-0.1,0.1-0.3,0.1-0.4c0-0.1,0.1-0.2,0.1-0.4c0-0.1,0.1-0.2,0.1-0.3l0.7-2.8h0.5
			l-1.3,4.7h-0.9L18.8,10.2z"/>
		<path fill="#424242" d="M25.2,12.6L24.6,11l-1.7,0l-0.5,1.6h-0.6L23.6,8l0.9-0.2l1.7,4.8H25.2z M24.5,10.6l-0.7-2l-0.7,2H24.5z"/>
		<path fill="#424242" d="M26.7,12.6V7.9h0.9v4.2h1.7l0,0.5H26.7z"/>
		<path fill="#424242" d="M30,12.6V7.9h0.9v4.2h1.7l0,0.5H30z"/>
		<path fill="#424242" d="M36,12.6h-2.7V7.9h2.6l0,0.5l-1.7,0V10l1.6,0l0,0.4l-1.5,0v1.7l1.8,0L36,12.6z"/>
		<path fill="#424242" d="M37.7,12.6V8.4l-1.4,0l0-0.5H40l0,0.5l-1.3,0v4.2H37.7z"/>
	</g>
</g>
</svg>
