<?xml version="1.0" encoding="utf-8"?>
<!-- Generator: Adobe Illustrator 17.1.0, SVG Export Plug-In . SVG Version: 6.00 Build 0)  -->
<!DOCTYPE svg PUBLIC "-//W3C//DTD SVG 1.1//EN" "http://www.w3.org/Graphics/SVG/1.1/DTD/svg11.dtd">
<svg version="1.1" id="Layer_1" xmlns="http://www.w3.org/2000/svg" xmlns:xlink="http://www.w3.org/1999/xlink" x="0px" y="0px"
	 viewBox="0 0 15 16" enable-background="new 0 0 15 16" xml:space="preserve">
<g>
	<g>
		<g>
			<path fill="#424242" stroke="#424242" stroke-miterlimit="10" d="M0.5,8c0-2.1,0-4.3,0-6.4c0-0.7,0.5-1.1,1.1-1.1
				c3.9,0,7.9,0,11.8,0c0.7,0,1.1,0.4,1.1,1.1c0,4.3,0,8.6,0,12.9c0,0.7-0.4,1.1-1.1,1.1c-3.9,0-7.9,0-11.8,0c-0.5,0-0.8-0.2-1-0.6
				c-0.1-0.1-0.1-0.3-0.1-0.4C0.5,12.3,0.5,10.1,0.5,8z M7.5,10.1c2.2,0,4.5,0,6.7,0c0.2,0,0.2,0,0.2-0.2c0-2.8,0-5.5,0-8.3
				c0-0.6-0.4-1-1-1c-3.9,0-7.9,0-11.8,0c-0.7,0-1,0.3-1,1c0,2.8,0,5.5,0,8.3c0,0.2,0,0.2,0.2,0.2C3,10.1,5.3,10.1,7.5,10.1z"/>
			<path fill="#FDFEFF" d="M7.5,10.1c-2.2,0-4.5,0-6.7,0c-0.2,0-0.2,0-0.2-0.2c0-2.8,0-5.5,0-8.3c0-0.7,0.3-1,1-1
				c3.9,0,7.9,0,11.8,0c0.7,0,1,0.3,1,1c0,2.8,0,5.5,0,8.3c0,0.2,0,0.2-0.2,0.2C12,10.1,9.8,10.1,7.5,10.1z M7.5,6.5
				C7.3,4.8,6.3,3.6,4.9,2.8c0,0.1,0,0.1,0,0.1c0.5,1.9,1,3.9,1.5,5.8c0,0.1,0.1,0.1,0.2,0.1c0.6,0,1.1,0,1.7,0c0.1,0,0.1,0,0.2-0.1
				c0.9-2.3,1.9-4.5,2.8-6.8c0.1-0.1,0-0.1-0.1-0.1c-0.5,0-1.1,0-1.6,0c-0.1,0-0.2,0-0.2,0.2C8.7,3.4,8.1,4.9,7.6,6.4
				C7.5,6.4,7.5,6.5,7.5,6.5z"/>
			<path fill="#424242" d="M7.5,6.5c0.1,0,0.1-0.1,0.1-0.1C8.1,4.9,8.7,3.4,9.2,2c0-0.1,0.1-0.2,0.2-0.2c0.5,0,1.1,0,1.6,0
				c0.1,0,0.2,0,0.1,0.1c-0.9,2.3-1.9,4.5-2.8,6.8c0,0.1-0.1,0.1-0.2,0.1c-0.6,0-1.1,0-1.7,0c-0.1,0-0.1,0-0.2-0.1
				c-0.5-1.9-1-3.9-1.5-5.8c0,0,0-0.1,0-0.1C6.3,3.6,7.3,4.8,7.5,6.5z"/>
		</g>
		<path fill="#BABABA" d="M7.3,5.6L6.7,2.6c0,0,0-0.7-0.9-0.7S3,1.8,3,1.8L3,2c0,0,1.4,0.3,2.7,1.3C6.8,4.2,7.3,5.6,7.3,5.6z"/>
	</g>
	<g>
		<path fill="#FFFFFF" d="M3.4,11.1C3.7,11,4,11,4.5,11c0.5,0,0.9,0.1,1.2,0.3C5.8,11.5,6,11.8,6,12.2c0,0.4-0.1,0.7-0.3,0.9
			c-0.3,0.3-0.7,0.4-1.3,0.4c-0.2,0-0.3,0-0.4,0v1.6H3.4V11.1z M4,13.1c0.1,0,0.3,0,0.4,0c0.6,0,1-0.3,1-0.9c0-0.5-0.4-0.8-1-0.8
			c-0.2,0-0.4,0-0.5,0V13.1z"/>
		<path fill="#FFFFFF" d="M6.9,13.8l-0.4,1.3H5.9L7.3,11h0.6l1.4,4.1H8.8l-0.4-1.3H6.9z M8.2,13.4l-0.4-1.2
			c-0.1-0.3-0.2-0.5-0.2-0.7h0c-0.1,0.2-0.1,0.5-0.2,0.7L7,13.4H8.2z"/>
		<path fill="#FFFFFF" d="M10.4,15.1v-1.7L9.1,11h0.6l0.6,1.1c0.2,0.3,0.3,0.6,0.4,0.8h0c0.1-0.3,0.3-0.5,0.4-0.8l0.6-1.1h0.6
			l-1.4,2.3v1.7H10.4z"/>
	</g>
</g>
</svg>
