<?xml version="1.0" encoding="utf-8"?>
<!-- Generator: Adobe Illustrator 17.1.0, SVG Export Plug-In . SVG Version: 6.00 Build 0)  -->
<!DOCTYPE svg PUBLIC "-//W3C//DTD SVG 1.1//EN" "http://www.w3.org/Graphics/SVG/1.1/DTD/svg11.dtd">
<svg version="1.1" id="Layer_1" xmlns="http://www.w3.org/2000/svg" xmlns:xlink="http://www.w3.org/1999/xlink" x="0px" y="0px"
	 viewBox="0 0 49 15" enable-background="new 0 0 49 15" xml:space="preserve">
<g>
	<polygon fill="#414141" points="17.3,14.8 19.8,0.3 23.7,0.3 21.2,14.8 	"/>
	<path fill="#414141" d="M35.6,0.6C34.8,0.3,33.6,0,32,0c-3.9,0-6.7,2-6.7,4.8c0,2.1,2,3.3,3.5,3.9c1.5,0.7,2.1,1.2,2.1,1.8
		c0,1-1.2,1.4-2.4,1.4c-1.6,0-2.4-0.2-3.7-0.8L24.3,11l-0.6,3.3c0.9,0.4,2.6,0.8,4.4,0.8c4.2,0,6.9-1.9,6.9-5c0-1.7-1-2.9-3.3-3.9
		c-1.4-0.7-2.2-1.1-2.2-1.8c0-0.6,0.7-1.2,2.3-1.2c1.3,0,2.2,0.3,3,0.6l0.4,0.2L35.6,0.6"/>
	<path fill="#414141" d="M45.8,0.3h-3.1c-0.9,0-1.7,0.3-2.1,1.2l-5.9,13.3h4.2c0,0,0.7-1.8,0.8-2.2c0.5,0,4.5,0,5.1,0
		c0.1,0.5,0.5,2.2,0.5,2.2H49L45.8,0.3 M40.9,9.6c0.3-0.8,1.6-4.1,1.6-4.1c0,0,0.3-0.8,0.5-1.4l0.3,1.3c0,0,0.8,3.5,0.9,4.2
		L40.9,9.6L40.9,9.6z"/>
	<path fill="#414141" d="M14,0.3l-3.9,9.9l-0.4-2c-0.7-2.3-3-4.8-5.5-6.1l3.5,12.7l4.2,0l6.2-14.5L14,0.3"/>
	<path fill="#808285" d="M6.5,0.3H0.1L0,0.6c5,1.2,8.3,4.1,9.6,7.6L8.3,1.5C8,0.6,7.3,0.3,6.5,0.3"/>
</g>
</svg>
