<?xml version="1.0" encoding="utf-8"?>
<!-- Generator: Adobe Illustrator 17.1.0, SVG Export Plug-In . SVG Version: 6.00 Build 0)  -->
<!DOCTYPE svg PUBLIC "-//W3C//DTD SVG 1.1//EN" "http://www.w3.org/Graphics/SVG/1.1/DTD/svg11.dtd">
<svg version="1.1" id="Layer_1" xmlns="http://www.w3.org/2000/svg" xmlns:xlink="http://www.w3.org/1999/xlink" x="0px" y="0px"
	 viewBox="0 0 25 15" enable-background="new 0 0 25 15" xml:space="preserve">
<g>
	<g>
		<rect x="0" y="0" fill-rule="evenodd" clip-rule="evenodd" fill="#424242" width="25" height="15"/>
		<g>
			<path fill-rule="evenodd" clip-rule="evenodd" fill="#BABABA" d="M6.8,9.1c2.7-1.1,6.4-2.2,11.3-1.1l0.1-1.3
				C13,6.1,9.3,7.8,6.8,8.9V9.1z"/>
			<polygon fill-rule="evenodd" clip-rule="evenodd" fill="#FFFFFF" points="2.1,10 4.6,10 4.6,10.7 3,10.7 3,11.4 4.5,11.4 
				4.5,12.2 3,12.2 3,12.9 4.5,12.9 4.5,13.6 2.1,13.6 			"/>
			<rect x="5.2" y="9.7" fill-rule="evenodd" clip-rule="evenodd" fill="#FFFFFF" width="0.9" height="3.9"/>
			<path fill-rule="evenodd" clip-rule="evenodd" fill="#FFFFFF" d="M9.2,13.3c-0.3,0.3-0.8,0.4-1.2,0.4c-1,0-1.4-0.7-1.4-1.4
				c0-0.8,0.6-1.5,1.4-1.5c1,0,1.3,0.7,1.3,1.6H7.5c0,0.2,0.1,0.6,0.6,0.6c0.3,0,0.5-0.1,0.7-0.3L9.2,13.3z M8.5,12
				c0-0.3-0.1-0.5-0.4-0.5c-0.3,0-0.5,0.3-0.6,0.5H8.5z"/>
			<path fill-rule="evenodd" clip-rule="evenodd" fill="#FFFFFF" d="M12.1,13.4c-0.3,0.2-0.7,0.3-1,0.3c-0.8,0-1.4-0.5-1.4-1.4
				c0-0.9,0.6-1.5,1.5-1.5c0.3,0,0.7,0.1,0.9,0.2l-0.3,0.6c-0.1-0.1-0.3-0.1-0.4-0.1c-0.5,0-0.8,0.3-0.8,0.7c0,0.4,0.3,0.7,0.7,0.7
				c0.2,0,0.3-0.1,0.5-0.2L12.1,13.4z"/>
			<path fill-rule="evenodd" clip-rule="evenodd" fill="#FFFFFF" d="M12.5,11h0.4l0-0.9h0.9l0,0.9h0.7l0,0.7h-0.7c0,0.4,0,0.8,0,1
				c0,0.2,0.1,0.3,0.3,0.3c0.1,0,0.2-0.1,0.3-0.1l0.2,0.6c-0.3,0.2-0.6,0.3-0.9,0.3c-0.7,0-0.8-0.5-0.8-1.1c0-0.3,0-0.7,0-1h-0.4
				L12.5,11z"/>
			<path fill-rule="evenodd" clip-rule="evenodd" fill="#FFFFFF" d="M14.9,11h0.9v0.4h0c0.1-0.2,0.3-0.4,0.7-0.4c0.1,0,0.2,0,0.3,0
				l-0.1,0.9c-0.1,0-0.2-0.1-0.3-0.1c-0.3,0-0.5,0.3-0.5,0.3l0,1.5h-0.9L14.9,11z"/>
			<path fill-rule="evenodd" clip-rule="evenodd" fill="#FFFFFF" d="M18.5,10.9c1,0,1.5,0.6,1.5,1.4c0,0.8-0.5,1.4-1.5,1.4
				c-1,0-1.5-0.6-1.5-1.4C17,11.5,17.5,10.9,18.5,10.9 M18.5,13c0.4,0,0.6-0.4,0.6-0.7c0-0.3-0.1-0.7-0.6-0.7
				c-0.4,0-0.6,0.4-0.6,0.7C17.9,12.6,18,13,18.5,13"/>
			<path fill-rule="evenodd" clip-rule="evenodd" fill="#FFFFFF" d="M20.4,11h0.9v0.3c0.2-0.2,0.5-0.4,0.9-0.4c0.6,0,0.9,0.3,0.9,1
				c0,0.5,0,1.1,0,1.7h-0.9c0-0.5,0-1,0-1.6c0-0.2-0.1-0.4-0.3-0.4c-0.1,0-0.4,0.1-0.5,0.2l0,1.7h-0.9L20.4,11z"/>
			<polygon fill-rule="evenodd" clip-rule="evenodd" fill="#FFFFFF" points="9.5,5.5 10.7,1.7 11.7,1.7 10.6,5.5 			"/>
			<path fill-rule="evenodd" clip-rule="evenodd" fill="#FFFFFF" d="M9.1,1.7L8.2,3.3C7.9,3.7,7.8,4,7.7,4.2h0c0-0.3,0-0.8,0-1
				L7.6,1.7H5.8l0,0.1c0.4,0,0.7,0.2,0.8,0.7l0.3,3H8l2.1-3.8H9.1z"/>
			<path fill-rule="evenodd" clip-rule="evenodd" fill="#FFFFFF" d="M17,5.5L17,5l-1.3,0l-0.3,0.6h-1.1l2-3.8h1.4l0.3,3.8H17z
				 M16.9,3.3c0-0.3,0-0.7,0-0.9h0c-0.1,0.2-0.3,0.8-0.4,1l-0.4,0.8H17L16.9,3.3z"/>
			<path fill-rule="evenodd" clip-rule="evenodd" fill="#FFFFFF" d="M12.8,5.6c-0.7,0-1.2-0.2-1.5-0.4l0.5-0.7
				c0.3,0.2,0.5,0.4,1.1,0.4c0.2,0,0.4,0,0.4-0.2c0.1-0.2,0-0.4-0.4-0.6l-0.2-0.1c-0.6-0.4-0.9-0.8-0.6-1.5c0.2-0.4,0.7-0.8,1.4-0.8
				c0.5,0,1,0.2,1.3,0.5l-0.6,0.7c-0.3-0.2-0.5-0.4-0.8-0.4c-0.2,0-0.4,0.1-0.4,0.2c-0.1,0.2,0,0.4,0.3,0.6l0.2,0.2
				c0.7,0.5,0.9,0.9,0.7,1.4C14,5.5,13.4,5.6,12.8,5.6"/>
		</g>
	</g>
</g>
</svg>
