<?xml version="1.0" encoding="utf-8"?>
<!-- Generator: Adobe Illustrator 17.1.0, SVG Export Plug-In . SVG Version: 6.00 Build 0)  -->
<!DOCTYPE svg PUBLIC "-//W3C//DTD SVG 1.1//EN" "http://www.w3.org/Graphics/SVG/1.1/DTD/svg11.dtd">
<svg version="1.1" id="Layer_1" xmlns="http://www.w3.org/2000/svg" xmlns:xlink="http://www.w3.org/1999/xlink" x="0px" y="0px"
	 viewBox="0 0 29 15" enable-background="new 0 0 29 15" xml:space="preserve">
<g>
	<g>
		<path fill="#424242" d="M1.7,7.3L0,0.3h1.7l0.5,2.9C2.4,4,2.5,4.9,2.6,5.6h0C2.8,4.9,2.9,4,3.1,3.2l0.6-2.9h1.7L6,3.2
			c0.2,0.8,0.3,1.6,0.4,2.3h0C6.5,4.8,6.6,4,6.8,3.2l0.6-2.9h1.6l-1.8,7H5.4l-0.6-3C4.7,3.6,4.6,2.9,4.5,2.1h0
			C4.3,2.9,4.2,3.6,4.1,4.3l-0.7,3C3.4,7.3,1.7,7.3,1.7,7.3z"/>
		<path fill="#424242" d="M11.1,0.8c0,0.4-0.3,0.8-0.9,0.8c-0.5,0-0.8-0.4-0.8-0.8C9.4,0.3,9.7,0,10.2,0C10.7,0,11.1,0.3,11.1,0.8z
			 M9.4,7.3V2.2H11v5.1H9.4z"/>
		<path fill="#424242" d="M12.3,3.9c0-0.7,0-1.2,0-1.7h1.4l0.1,0.9h0c0.3-0.7,0.9-1,1.4-1c0.1,0,0.2,0,0.3,0v1.5c-0.1,0-0.2,0-0.4,0
			c-0.6,0-1,0.3-1.1,0.8c0,0.1,0,0.2,0,0.4v2.6h-1.6L12.3,3.9L12.3,3.9z"/>
		<path fill="#424242" d="M17.4,5.3c0,0.7,0.7,1,1.4,1c0.5,0,1-0.1,1.4-0.2l0.2,1.1c-0.5,0.2-1.2,0.3-1.8,0.3c-1.7,0-2.7-1-2.7-2.6
			c0-1.3,0.8-2.7,2.6-2.7c1.6,0,2.3,1.3,2.3,2.5c0,0.3,0,0.5-0.1,0.6H17.4z M19.2,4.2c0-0.4-0.2-1-0.9-1c-0.7,0-0.9,0.6-1,1H19.2z"
			/>
		<path fill="#424242" d="M1.5,9.3v1.3h1.1v0.6H1.5v2.4c0,0.5,0.2,0.8,0.6,0.8c0.2,0,0.4,0,0.5-0.1l0,0.6C2.4,14.9,2.2,15,1.8,15
			c-0.4,0-0.7-0.1-0.9-0.3c-0.2-0.2-0.3-0.6-0.3-1.1v-2.4H0v-0.6h0.7v-1L1.5,9.3z"/>
		<path fill="#424242" d="M3.5,11.9c0-0.5,0-1,0-1.4h0.7l0,0.9h0c0.2-0.6,0.7-1,1.2-1c0.1,0,0.2,0,0.2,0v0.7c-0.1,0-0.2,0-0.3,0
			c-0.6,0-1,0.4-1.1,1c0,0.1,0,0.2,0,0.4v2.3H3.5L3.5,11.9L3.5,11.9z"/>
		<path fill="#424242" d="M8.8,14.9l-0.1-0.5h0C8.5,14.7,8,15,7.4,15C6.5,15,6,14.4,6,13.7c0-1.1,0.9-1.6,2.6-1.6V12
			c0-0.4-0.1-1-1-1c-0.4,0-0.8,0.1-1.1,0.3l-0.2-0.5c0.4-0.2,0.9-0.4,1.4-0.4c1.3,0,1.7,0.9,1.7,1.8v1.6c0,0.4,0,0.7,0.1,1L8.8,14.9
			L8.8,14.9z M8.7,12.7c-0.9,0-1.8,0.1-1.8,1c0,0.5,0.3,0.8,0.7,0.8c0.6,0,0.9-0.4,1.1-0.7c0-0.1,0-0.2,0-0.3L8.7,12.7L8.7,12.7z"/>
		<path fill="#424242" d="M10.7,11.7c0-0.4,0-0.8,0-1.2h0.7l0,0.7h0c0.2-0.4,0.7-0.8,1.4-0.8c0.6,0,1.5,0.4,1.5,1.9v2.6h-0.8v-2.5
			c0-0.7-0.3-1.3-1-1.3c-0.5,0-0.9,0.4-1.1,0.8c0,0.1-0.1,0.2-0.1,0.4v2.6h-0.8L10.7,11.7L10.7,11.7z"/>
		<path fill="#424242" d="M15.6,14.1c0.2,0.2,0.7,0.3,1,0.3c0.6,0,0.8-0.3,0.8-0.6c0-0.4-0.2-0.6-0.8-0.8c-0.8-0.3-1.2-0.7-1.2-1.2
			c0-0.7,0.6-1.3,1.5-1.3c0.4,0,0.8,0.1,1.1,0.3l-0.2,0.6C17.8,11.2,17.4,11,17,11c-0.5,0-0.7,0.3-0.7,0.6c0,0.4,0.3,0.5,0.8,0.7
			c0.8,0.3,1.1,0.7,1.1,1.3c0,0.8-0.6,1.3-1.6,1.3c-0.5,0-0.9-0.1-1.2-0.3L15.6,14.1z"/>
		<path fill="#424242" d="M19.4,14.9v-3.8h-0.6v-0.6h0.6v-0.2c0-0.6,0.1-1.2,0.5-1.5c0.3-0.3,0.7-0.4,1.1-0.4c0.3,0,0.5,0.1,0.7,0.1
			l-0.1,0.6C21.4,9.1,21.2,9,21,9c-0.7,0-0.8,0.6-0.8,1.3v0.2h1.1v0.6h-1.1v3.8L19.4,14.9L19.4,14.9z"/>
		<path fill="#424242" d="M22.3,12.9c0,1.1,0.7,1.5,1.5,1.5c0.6,0,0.9-0.1,1.2-0.2l0.1,0.6c-0.3,0.1-0.8,0.3-1.5,0.3
			c-1.3,0-2.1-0.9-2.1-2.2c0-1.3,0.8-2.4,2-2.4c1.4,0,1.8,1.3,1.8,2.1c0,0.2,0,0.3,0,0.4L22.3,12.9L22.3,12.9z M24.6,12.3
			c0-0.5-0.2-1.3-1.1-1.3c-0.8,0-1.2,0.7-1.2,1.3H24.6z"/>
		<path fill="#424242" d="M26.3,11.9c0-0.5,0-1,0-1.4H27l0,0.9h0c0.2-0.6,0.7-1,1.2-1c0.1,0,0.2,0,0.2,0v0.7c-0.1,0-0.2,0-0.3,0
			c-0.6,0-1,0.4-1.1,1c0,0.1,0,0.2,0,0.4v2.3h-0.8L26.3,11.9L26.3,11.9z"/>
	</g>
	<polygon fill="#424242" points="23.6,2 25.9,3.3 23.6,4.7 	"/>
	<polygon fill="#424242" points="26.7,2 29,3.3 26.7,4.7 	"/>
</g>
</svg>
